<svg xmlns="http://www.w3.org/2000/svg" viewBox="0 0 496.97 275.05"><defs><style>.cls-1,.cls-9{fill:#ffea55;}.cls-1,.cls-11,.cls-12,.cls-3,.cls-7{stroke:#231815;}.cls-1,.cls-11,.cls-12,.cls-13,.cls-14,.cls-15,.cls-3,.cls-6,.cls-7,.cls-8{stroke-linecap:round;stroke-linejoin:round;}.cls-1,.cls-11,.cls-3,.cls-7{stroke-width:4.02px;}.cls-2{fill:#80dfff;}.cls-13,.cls-14,.cls-15,.cls-3,.cls-6,.cls-8{fill:none;}.cls-4,.cls-7{fill:#fff;}.cls-11,.cls-12,.cls-5{fill:#00bfff;}.cls-6{stroke:#fff;stroke-width:4.57px;}.cls-8{stroke:#000;stroke-width:2.01px;}.cls-10{fill:#231815;}.cls-12,.cls-13,.cls-14{stroke-width:4px;}.cls-13{stroke:#00bfff;}.cls-14{stroke:#ffea55;}.cls-15{stroke:#80dfff;stroke-width:8px;}</style></defs><title>アセット 9</title><g id="レイヤー_2" data-name="レイヤー 2"><g id="レイヤー_1-2" data-name="レイヤー 1"><path class="cls-1" d="M213.63,138.07s-21.26,5.48-26.73,26.42c0,0,25.34,4.58,31.24-21.16"/><path class="cls-1" d="M282.35,138.07s21.27,5.48,26.74,26.42c0,0-25.34,4.58-31.24-21.16"/><path class="cls-2" d="M290.05,198.07c13.26,12,6.21,75,6.21,75H199.73l-1.82-27.91c.43-62.24,31.33-65.49,31.33-65.49s4.92,6.45,15.54,6.6c15.06.21,15-4.28,23.07-5.69C273,179.64,290.05,198.07,290.05,198.07Z"/><path class="cls-3" d="M276.79,186.08c-6.25-3.77-4.83-2.38-13.59-9.16-6.16-4.76-5.63-20.61,1.06-23.21,7-2.72,13.31-9,18.3-16.77,2.58,2.47,7.21,3,11.6-5.45,5.26-10.11-.58-12.36-3.21-12.86a.88.88,0,0,0,.05-.15,16.89,16.89,0,0,0-3.73-16.19L263.54,76.12H232.45l-23.73,26.17A16.89,16.89,0,0,0,205,118.48a.88.88,0,0,0,0,.15c-2.64.51-8.44,2.78-3.19,12.86,4.39,8.42,9,7.92,11.58,5.46,5,7.79,11.32,14,18.3,16.76,6.69,2.6,7.22,18.45,1.06,23.21-8.77,6.78-7.34,5.39-13.59,9.16-10.1,6.1-26.86,13.55-19.47,87h96.53C303.65,199.63,286.88,192.18,276.79,186.08Z"/><path class="cls-1" d="M290.77,118.48c4.34-9.26,6.38-17.45,5.45-25.54C294.26,76,283,66,279.46,63.12S267,53,253.28,52.18a43.9,43.9,0,0,0-28.37,8.71c-32.59,7.38-30.87,55.27-19.79,57.59A100.87,100.87,0,0,0,233.83,99s-3.76,9.85-6.75,10.69,12,3.05,25.72-19.59c0,0-4.5,14.79-5.63,16.77s11.43-3.43,17.26-16.77c0,0,11.74,23.48,24.13,26"/><path class="cls-4" d="M204.49,93.23l4-2.88a6.24,6.24,0,0,1,1.81-1.17.64.64,0,0,1,.21,0l0,0c.11.12.09.36.09.5a2.57,2.57,0,0,0,.52,2A1.9,1.9,0,0,0,213,92a28,28,0,0,0,4.68-1.93,1.15,1.15,0,0,0-1.16-2c-.77.36-1.54.71-2.32,1l-1.07.42c-.19.07-.39.15-.59.21s-.47,0,0,.3.32.19.32-.19c0-.13,0-.26,0-.39a3.26,3.26,0,0,0-.21-1A2.41,2.41,0,0,0,211.22,87c-1.41-.53-2.73.51-3.81,1.29l-4.08,3a1.18,1.18,0,0,0-.41,1.57,1.16,1.16,0,0,0,1.57.41Z"/><path class="cls-3" d="M267.85,180.55c-23.07,13.79-38.61-.91-38.61-.91"/><path class="cls-5" d="M248.55,11.76S225.92,62.24,225.92,63c0,4.11,10.13,7.45,22.63,7.45s22.63-3.34,22.63-7.45C271.18,62.24,248.55,11.76,248.55,11.76Z"/><path class="cls-6" d="M239.9,31.1a16.47,16.47,0,0,0,14.26-6.81"/><path class="cls-6" d="M236.7,44.79s11.23,3.74,23-8.12"/><path class="cls-6" d="M230,57.4s20.5,8.21,36.43-8.12"/><path class="cls-3" d="M248.55,11.76S225.92,62.24,225.92,63c0,4.11,10.13,7.45,22.63,7.45s22.63-3.34,22.63-7.45C271.18,62.24,248.55,11.76,248.55,11.76Z"/><circle class="cls-7" cx="248.55" cy="9.22" r="7.21"/><path class="cls-8" d="M247,128.09a2.1,2.1,0,0,1,2.05,0"/><path class="cls-8" d="M226.07,127.83s1.37-1,1.82-.54,2.51-.12,2.51-.12"/><path class="cls-8" d="M265.59,127.83s1.36-1,1.82-.54,2.51-.12,2.51-.12"/><polyline class="cls-8" points="263.53 116.17 258.46 118.36 263.53 121.02"/><polyline class="cls-8" points="232.46 116.17 237.53 118.36 232.46 121.02"/><path class="cls-8" d="M238.25,136.26a20.7,20.7,0,0,0,19.49,0"/><path class="cls-9" d="M106.1,180.55c-8.07,1.41-8,5.9-23.07,5.69-10.62-.15-15.54-6.6-15.54-6.6s-30.91,3.25-31.34,65.49L38,273H134.5s7.05-63-6.21-75C128.29,198.07,111.27,179.64,106.1,180.55Z"/><path class="cls-3" d="M115,186.08c-6.24-3.77-4.82-2.38-13.59-9.16-6.16-4.76-5.63-20.61,1.06-23.21,7-2.72,13.31-9,18.31-16.77,2.57,2.47,7.2,3,11.59-5.45,5.27-10.11-.58-12.36-3.2-12.86a.88.88,0,0,1,.05-.15,16.92,16.92,0,0,0-3.74-16.19L101.79,76.12H70.69L47,102.29a16.92,16.92,0,0,0-3.74,16.19s0,.1.05.15c-2.63.51-8.43,2.78-3.18,12.86,4.38,8.42,9,7.92,11.58,5.46,5,7.79,11.31,14,18.3,16.76,6.69,2.6,7.22,18.45,1.06,23.21-8.77,6.78-7.35,5.39-13.59,9.16-10.1,6.1-26.86,13.55-19.47,87H134.5C141.89,199.63,125.13,192.18,115,186.08Z"/><circle class="cls-10" cx="73.24" cy="118.36" r="2.2"/><circle class="cls-10" cx="99.24" cy="118.36" r="2.2"/><path d="M96.06,107.72l.19-.18c0-.05-.19.11,0,0s.32-.2.49-.28l.25-.12c-.24.11.06,0,.09,0,.19-.06.39-.13.59-.18l.69-.16.39-.06c-.2,0,.12,0,.15,0a10.64,10.64,0,0,1,1.49,0,8.15,8.15,0,0,1,2.6.56,4.08,4.08,0,0,1,2,1.63c.77,1.24,2.73.1,2-1.14-1.37-2.22-3.93-3.16-6.43-3.3-2-.12-4.58.22-6.07,1.72a1.13,1.13,0,0,0,1.6,1.6Z"/><path class="cls-8" d="M85.21,128.09a2.12,2.12,0,0,1,2.06,0"/><path class="cls-8" d="M94,138a7.76,7.76,0,1,1-15.51,0C78.48,133.73,94,133.73,94,138Z"/><path class="cls-8" d="M64.31,127.83s1.37-1,1.83-.54,2.51-.12,2.51-.12"/><path class="cls-8" d="M103.83,127.83s1.37-1,1.83-.54,2.5-.12,2.5-.12"/><path class="cls-11" d="M102.67,83.3s-3.79,14.8-25.34,22.21c0,0,5.89-12.12,6.72-14.91s-12,16.29-40.69,27.88c-11.08-2.32-12.8-50.21,19.8-57.59a43.84,43.84,0,0,1,28.36-8.71c13.76.77,22.74,8.06,26.19,10.94S132.51,76,134.46,92.94c.94,8.09-1.1,16.28-5.45,25.54C129,118.48,107,101.33,102.67,83.3Z"/><path class="cls-4" d="M42.73,93.23l4-2.88a6.43,6.43,0,0,1,1.82-1.17.64.64,0,0,1,.21,0l0,0c.11.12.09.36.09.5a2.56,2.56,0,0,0,.51,2,1.9,1.9,0,0,0,1.91.39,27.61,27.61,0,0,0,4.68-1.93,1.15,1.15,0,0,0-1.16-2c-.76.36-1.53.71-2.32,1-.35.15-.71.28-1.06.42s-.39.15-.59.21-.48,0,0,.3.31.19.32-.19c0-.13,0-.26,0-.39a3,3,0,0,0-.2-1A2.42,2.42,0,0,0,49.46,87c-1.41-.53-2.72.51-3.8,1.29l-4.09,3a1.19,1.19,0,0,0-.41,1.57,1.17,1.17,0,0,0,1.57.41Z"/><path class="cls-3" d="M106.1,180.55c-23.07,13.79-38.61-.91-38.61-.91"/><path class="cls-9" d="M64.86,12.62S56.29,67.27,56.49,68c1.08,4,11.73,4.52,23.79,1.24s21-9.17,19.88-13.14C100,55.37,64.86,12.62,64.86,12.62Z"/><path class="cls-6" d="M61.6,33.55a16.43,16.43,0,0,0,12-10.31"/><path class="cls-6" d="M62.11,47.6s11.81.66,20-13.87"/><path class="cls-6" d="M58.93,61.54s21.94,2.53,33-17.41"/><path class="cls-3" d="M64.86,12.62S56.29,67.27,56.49,68c1.08,4,11.73,4.52,23.79,1.24s21-9.17,19.88-13.14C100,55.37,64.86,12.62,64.86,12.62Z"/><circle class="cls-7" cx="64.19" cy="10.17" r="7.21"/><path class="cls-9" d="M429.56,180.55c-8.06,1.41-8,5.9-23.07,5.69-10.62-.15-15.54-6.6-15.54-6.6s-30.9,3.25-31.34,65.49L361.44,273H458s7-63-6.22-75C451.75,198.07,434.73,179.64,429.56,180.55Z"/><path class="cls-3" d="M438.49,186.08c-6.24-3.77-4.82-2.38-13.59-9.16-6.15-4.76-5.62-20.61,1.06-23.21,7-2.72,13.31-9,18.31-16.77,2.58,2.47,7.2,3,11.6-5.45,5.26-10.11-.58-12.36-3.21-12.86a.88.88,0,0,0,0-.15A16.87,16.87,0,0,0,449,102.29L425.25,76.12H394.16l-23.73,26.17a16.92,16.92,0,0,0-3.74,16.19.88.88,0,0,1,.05.15c-2.63.51-8.43,2.78-3.18,12.86,4.38,8.42,9,7.92,11.58,5.46,5,7.79,11.32,14,18.3,16.76,6.69,2.6,7.22,18.45,1.06,23.21-8.77,6.78-7.34,5.39-13.59,9.16-10.1,6.1-26.86,13.55-19.47,87H458C465.35,199.63,448.59,192.18,438.49,186.08Z"/><path class="cls-11" d="M452.48,118.48c4.34-9.26,6.38-17.45,5.44-25.54C456,76,444.66,66,441.17,63.12S428.74,53,415,52.18a43.84,43.84,0,0,0-28.36,8.71c-32.59,7.38-30.88,55.27-19.8,57.59l8.1-16s18.23-.08,22.82,0l3.05-7.06.82,7.06h35.63Z"/><path class="cls-3" d="M429.56,180.55c-23.07,13.79-38.61-.91-38.61-.91"/><path class="cls-9" d="M410.26,11.76S387.63,62.24,387.63,63c0,4.11,10.13,7.45,22.63,7.45s22.63-3.34,22.63-7.45C432.89,62.24,410.26,11.76,410.26,11.76Z"/><path class="cls-6" d="M401.61,31.1a16.44,16.44,0,0,0,14.25-6.81"/><path class="cls-6" d="M398.41,44.79s11.22,3.74,23-8.12"/><path class="cls-6" d="M391.68,57.4s20.5,8.21,36.43-8.12"/><path class="cls-3" d="M410.26,11.76S387.63,62.24,387.63,63c0,4.11,10.13,7.45,22.63,7.45s22.63-3.34,22.63-7.45C432.89,62.24,410.26,11.76,410.26,11.76Z"/><circle class="cls-7" cx="410.26" cy="9.22" r="7.21"/><path class="cls-12" d="M376.24,86.63s-2.57,10-2.16,15.85"/><path class="cls-11" d="M432.89,78.46a26.56,26.56,0,0,1,4.35,24.05"/><path class="cls-11" d="M423.74,86.63s2.93,9.52,0,15.88"/><path class="cls-8" d="M417.46,138A7.76,7.76,0,1,1,402,138C402,133.73,417.46,133.73,417.46,138Z"/><path class="cls-8" d="M408.68,128.09a2.1,2.1,0,0,1,2.05,0"/><path class="cls-8" d="M386.78,127.83s1.37-1,1.82-.54,2.51-.12,2.51-.12"/><path class="cls-8" d="M428.29,127.83s1.37-1,1.83-.54,2.51-.12,2.51-.12"/><path class="cls-8" d="M393.42,118.48a5.88,5.88,0,0,1,7.6,0"/><path class="cls-8" d="M418.38,118.48a5.9,5.9,0,0,1,7.61,0"/><path class="cls-4" d="M370.32,83.32l5.35-2.74c.95-.49,3.71-2.24,4.19-.33.19.78.28,1.48,1.05,1.94a3.2,3.2,0,0,0,2.28.17,55.41,55.41,0,0,0,6.06-1.66c1.4-.44.8-2.66-.61-2.21a45.66,45.66,0,0,1-6.06,1.66c-.59.1-.4,0-.51-.51a2.93,2.93,0,0,0-.39-1,3.41,3.41,0,0,0-1.84-1.39c-1.76-.56-3.48.39-5,1.17l-5.67,2.91c-1.31.68-.15,2.66,1.16,2Z"/><line class="cls-13" x1="489.33" y1="174.58" x2="489.33" y2="185.85"/><line class="cls-13" x1="483.69" y1="180.21" x2="494.97" y2="180.21"/><line class="cls-14" x1="319.28" y1="91.99" x2="319.28" y2="103.26"/><line class="cls-14" x1="313.64" y1="97.63" x2="324.91" y2="97.63"/><line class="cls-13" x1="138.38" y1="156.34" x2="138.38" y2="167.61"/><line class="cls-13" x1="132.75" y1="161.98" x2="144.02" y2="161.98"/><line class="cls-13" x1="341.3" y1="203.2" x2="341.3" y2="214.47"/><line class="cls-13" x1="335.67" y1="208.84" x2="346.94" y2="208.84"/><line class="cls-14" x1="170.8" y1="216.73" x2="170.8" y2="228"/><line class="cls-14" x1="165.16" y1="222.37" x2="176.44" y2="222.37"/><line class="cls-14" x1="168.12" y1="119.63" x2="168.12" y2="130.9"/><line class="cls-14" x1="162.48" y1="125.26" x2="173.76" y2="125.26"/><line class="cls-14" x1="324.67" y1="237.72" x2="324.67" y2="248.99"/><line class="cls-14" x1="319.03" y1="243.36" x2="330.3" y2="243.36"/><line class="cls-14" x1="467.72" y1="36.71" x2="467.72" y2="47.98"/><line class="cls-14" x1="462.08" y1="42.35" x2="473.35" y2="42.35"/><line class="cls-13" x1="29.27" y1="23.66" x2="29.27" y2="34.93"/><line class="cls-13" x1="23.64" y1="29.29" x2="34.91" y2="29.29"/><line class="cls-14" x1="7.64" y1="64.18" x2="7.64" y2="75.45"/><line class="cls-14" x1="2" y1="69.81" x2="13.27" y2="69.81"/><line class="cls-13" x1="18.02" y1="203.09" x2="18.02" y2="214.36"/><line class="cls-13" x1="12.39" y1="208.72" x2="23.66" y2="208.72"/><path class="cls-15" d="M115.63,39.35s29.8-.68,50.92-24.37"/><path class="cls-15" d="M217.47,39.35s-29.8-.68-50.92-24.37"/><path class="cls-15" d="M278.52,39.35s29.8-.68,50.92-24.37"/><path class="cls-15" d="M380.35,39.35s-29.8-.68-50.91-24.37"/></g></g></svg>